HIERARCHY
ROOT Hips
{
	OFFSET 0.000000 0.000000 0.000000 
	CHANNELS 6 Xposition Yposition Zposition Zrotation Yrotation Xrotation
	JOINT LeftUpLeg
	{
		OFFSET 1.363060 -1.794630 0.839290 
		CHANNELS 3 Zrotation Yrotation Xrotation
		JOINT LeftLeg
		{
			OFFSET 2.448110 -6.726130 0.000000 
			CHANNELS 3 Zrotation Yrotation Xrotation
			JOINT LeftFoot
			{
				OFFSET 2.562200 -7.039590 0.000000 
				CHANNELS 3 Zrotation Yrotation Xrotation
				JOINT LeftToeBase
				{
					OFFSET 0.157640 -0.433110 2.322550 
					CHANNELS 3 Zrotation Yrotation Xrotation
					End Site
					{
						OFFSET 0.000000 0.000000 0.000000 
					}
				}
			}
		}
	}
	JOINT RightUpLeg
	{
		OFFSET -1.305520 -1.794630 0.839290 
		CHANNELS 3 Zrotation Yrotation Xrotation
		JOINT RightLeg
		{
			OFFSET -2.542530 -6.985550 0.000000 
			CHANNELS 3 Zrotation Yrotation Xrotation
			JOINT RightFoot
			{
				OFFSET -2.568260 -7.056230 0.000000 
				CHANNELS 3 Zrotation Yrotation Xrotation
				JOINT RightToeBase
				{
					OFFSET -0.164730 -0.452590 2.363150 
					CHANNELS 3 Zrotation Yrotation Xrotation
					End Site
					{
						OFFSET 0.000000 0.000000 0.000000 
					}
				}
			}
		}
	}
	JOINT Spine
	{
		OFFSET 0.028270 2.035590 -0.193380 
		CHANNELS 3 Zrotation Yrotation Xrotation
		JOINT Spine1
		{
			OFFSET 0.056720 2.048850 -0.042750 
			CHANNELS 3 Zrotation Yrotation Xrotation
			JOINT Neck1
			{
				OFFSET -0.054170 1.746240 0.172020 
				CHANNELS 3 Zrotation Yrotation Xrotation
				JOINT Head
				{
					OFFSET 0.104070 1.761360 -0.123970 
					CHANNELS 3 Zrotation Yrotation Xrotation
					End Site
					{
						OFFSET 0.000000 0.000000 0.000000 
					}
				}
			}
			JOINT LeftArm
			{
				OFFSET 3.362410 1.200890 -0.311210 
				CHANNELS 3 Zrotation Yrotation Xrotation
				JOINT LeftForeArm
				{
					OFFSET 4.983000 -0.000000 -0.000000 
					CHANNELS 3 Zrotation Yrotation Xrotation
					JOINT LeftHand
					{
						OFFSET 3.483560 -0.000000 -0.000000 
						CHANNELS 3 Zrotation Yrotation Xrotation
						JOINT LeftHandIndex1
						{
							OFFSET 0.715260 -0.000000 -0.000000 
							CHANNELS 3 Zrotation Yrotation Xrotation
							End Site
							{
								OFFSET 0.000000 0.000000 0.000000 
							}
						}
					}
				}
			}
			JOINT RightArm
			{
				OFFSET -3.136600 1.374050 -0.404650 
				CHANNELS 3 Zrotation Yrotation Xrotation
				JOINT RightForeArm
				{
					OFFSET -5.241900 -0.000000 -0.000000 
					CHANNELS 3 Zrotation Yrotation Xrotation
					JOINT RightHand
					{
						OFFSET -3.444170 -0.000000 -0.000000 
						CHANNELS 3 Zrotation Yrotation Xrotation
						JOINT RightHandIndex1
						{
							OFFSET -0.622530 -0.000000 -0.000000 
							CHANNELS 3 Zrotation Yrotation Xrotation
							End Site
							{
								OFFSET 0.000000 0.000000 0.000000 
							}
						}
					}
				}
			}
		}
	}
}
MOTION
Frames: 18
Frame Time: 0.041667
0.133292 16.937995 -10.760049 -4.365891 -12.902782 21.493565 -8.447674 -5.340602 -63.545164 22.830479 21.910769 96.247412 -0.742008 6.080476 14.227157 0.893700 -6.025300 -16.857900 23.602900 12.886770 -10.849218 -3.164552 -11.610415 36.510681 0.109693 -3.674060 -9.709341 -2.707500 10.205700 -29.645600 0.711164 5.858257 -1.378159 -1.715652 3.130502 -5.815271 3.099611 -1.712393 -5.936575 2.991700 -0.439200 2.553000 -67.006120 24.756153 10.867567 29.648413 -44.093402 -18.152215 -0.667931 -3.159822 -16.783273 -7.125000 0.000000 0.000000 78.193822 36.467036 45.865357 -95.566366 60.034382 -72.962368 2.198593 0.024066 -18.799170 7.125000 0.000000 0.000000 
0.131724 16.933917 -10.243922 -4.282674 -12.900203 22.293689 -7.055778 -6.596233 -66.683687 22.300723 22.129400 94.769545 -0.653624 5.317997 13.143103 1.019600 -6.424000 -18.019700 22.935217 12.332594 -8.934584 -2.510422 -10.744410 33.703930 0.119370 -3.352940 -7.783329 -2.618600 10.050500 -29.140400 0.557918 6.179878 -1.527120 -2.341920 3.314067 -5.882130 3.253513 -2.267509 -6.194576 3.018500 -0.692400 2.456600 -65.156097 27.790467 14.281635 32.691612 -46.388704 -20.937004 -0.532307 -3.153556 -19.532607 -7.125000 0.000000 0.000000 77.783904 37.544300 44.706355 -103.937426 59.902874 -79.104340 2.087040 -0.111859 -20.050301 7.125000 0.000000 0.000000 
0.133292 16.944581 -9.704900 -4.040733 -12.710398 22.874731 -5.870796 -7.913366 -69.205530 21.569795 22.323975 92.717040 -0.470950 4.445524 13.068397 0.678400 -5.266400 -14.670100 22.129377 11.619730 -6.892360 -1.896887 -9.852801 30.932315 -0.056311 -2.486308 -5.547138 -2.523200 9.879900 -28.588700 0.412915 6.535790 -1.693360 -2.917067 3.510686 -6.067301 3.324465 -3.038746 -6.220325 3.002600 -1.074600 2.474100 -63.217102 30.448312 17.839528 35.665836 -48.387767 -23.692877 -0.488402 -3.099908 -21.739819 -7.125000 0.000000 0.000000 76.677210 37.966511 43.538564 -111.563034 58.917988 -84.511402 2.034035 -0.240423 -21.875926 7.125000 0.000000 0.000000 
0.136846 16.957230 -9.130020 -3.713841 -12.311125 23.080361 -4.909829 -9.221097 -70.926707 20.656119 22.475461 90.232016 -0.189930 3.147135 13.199206 0.377500 -3.946100 -10.924900 21.349464 10.789823 -4.389372 -1.321460 -8.923472 28.164834 -0.215421 -1.671900 -2.697284 -2.483800 9.808500 -28.358700 0.271527 6.839249 -1.719876 -3.545879 3.698864 -5.718750 3.406453 -3.895237 -6.285989 2.990900 -1.488200 2.495500 -61.514842 32.218549 20.831250 38.271013 -49.981057 -26.155669 -0.460334 -3.011636 -23.163697 -7.125000 0.000000 0.000000 74.932559 39.083584 42.489945 -117.931945 57.459691 -88.999776 2.038000 -0.295099 -24.065773 7.125000 0.000000 0.000000 
0.129006 16.957335 -8.583471 -3.122127 -11.313193 23.302946 -4.148622 -10.768054 -72.632768 19.585455 22.586985 87.394902 0.171541 1.448306 13.400282 0.251600 -3.227200 -8.911900 20.675541 9.810133 -2.053712 -0.813980 -8.000781 25.478575 -0.067960 -1.917804 0.656534 -2.801700 10.367000 -30.173400 0.163646 6.831922 -1.768770 -3.956053 3.727246 -5.562424 3.505429 -4.571588 -6.480772 2.975300 -1.812000 2.443500 -60.230403 33.663347 23.346511 41.126704 -51.517893 -28.819706 -0.403771 -2.955556 -24.290761 -7.125000 0.000000 0.000000 73.417266 38.503415 41.455802 -123.438157 55.749709 -92.792926 2.148080 -0.487220 -25.690059 7.125000 0.000000 0.000000 
0.116147 16.978975 -8.014237 -2.528376 -10.112427 23.148158 -3.787531 -12.130369 -73.247026 18.305792 22.606112 84.005804 0.481384 -0.105352 13.139497 0.246300 -3.193300 -8.817400 20.207269 8.792129 0.366711 -0.376037 -7.101906 22.934873 0.006519 -2.138312 4.806107 -2.947100 10.608900 -30.971800 0.116055 6.697736 -1.762627 -4.133428 3.692664 -5.356972 3.622120 -5.117219 -6.482672 2.965800 -2.076200 2.539700 -59.854722 35.027504 24.799644 44.510347 -53.150093 -31.983965 -0.375286 -2.849535 -24.735709 -7.125000 0.000000 0.000000 72.112658 38.387923 41.101529 -127.405241 54.236276 -95.487219 2.257615 -0.702046 -25.388843 7.125000 0.000000 0.000000 
0.097016 17.015147 -7.433294 -1.778213 -8.849513 22.802282 -3.828490 -13.419054 -73.210385 16.850143 22.518941 80.111217 0.724198 -1.222219 13.086039 0.222600 -3.037300 -8.382500 19.667139 7.886656 2.914536 -0.007993 -6.256380 20.593541 -0.064649 -2.318402 10.176885 -2.642600 10.092800 -29.277600 0.134904 6.438065 -1.762021 -3.849869 3.588617 -5.325520 3.663674 -5.500724 -6.268953 2.936600 -2.278700 2.725600 -60.376032 36.524433 25.287966 47.878459 -54.666281 -35.201285 -0.311756 -2.706791 -24.154959 -7.125000 0.000000 0.000000 71.143693 37.279566 41.350074 -130.273190 53.023910 -97.425140 2.265664 -0.889602 -23.054227 7.125000 0.000000 0.000000 
0.063144 17.077977 -6.850259 -1.020134 -7.801414 22.531318 -4.234765 -14.300920 -72.672962 15.258338 22.298573 75.862389 0.988070 -2.349124 13.335476 0.195500 -2.847300 -7.854000 19.041865 7.529017 5.320189 0.298851 -5.459561 18.208751 -0.011726 -3.994716 17.121581 -1.962000 8.786500 -25.129800 0.191017 6.154040 -1.848637 -3.198606 3.457733 -5.762565 3.676682 -5.704707 -6.174778 2.904600 -2.402500 2.770100 -61.142180 37.977082 25.597031 50.701444 -55.848057 -37.873542 -0.062187 -2.706660 -22.944060 -7.125000 0.000000 0.000000 70.726634 35.279688 42.126739 -132.530292 51.984619 -98.971992 2.184378 -0.988467 -19.790344 7.125000 0.000000 0.000000 
0.031572 17.153771 -6.240776 -0.421233 -7.465920 22.068699 -5.253871 -14.319370 -71.287237 13.688132 21.937222 71.688532 1.261123 -3.516418 13.528374 0.159100 -2.569700 -7.082900 18.277089 7.981011 7.939459 0.523726 -4.815332 16.006343 -0.163899 -6.292147 24.158077 -1.928100 8.714600 -24.906500 0.211562 6.073589 -1.872448 -2.602881 3.441938 -5.958422 3.802761 -5.892275 -5.771363 2.925500 -2.511800 3.045500 -62.210455 38.967713 25.888136 52.113379 -56.408070 -39.124344 -0.212514 -2.703794 -22.789440 -7.125000 0.000000 0.000000 70.704557 33.211896 43.362002 -134.144835 51.206124 -100.068504 2.101146 -1.007044 -17.986122 7.125000 0.000000 0.000000 
0.009722 17.220364 -5.609130 -0.350483 -7.316491 21.406726 -6.141712 -13.731766 -69.416236 12.243643 21.479257 67.823776 1.540071 -4.708080 13.641909 0.118500 -2.219200 -6.111900 18.208189 9.049968 10.644404 0.752724 -4.344693 14.593447 -1.204003 -5.610460 30.362699 -0.607300 4.988100 -13.874600 0.247875 6.130837 -1.855107 -2.210567 3.485398 -6.026566 4.062589 -5.987729 -5.306833 3.065500 -2.557900 3.302300 -63.529390 39.581575 25.714195 52.978759 -56.734998 -39.882888 -0.316860 -2.649233 -22.249435 -7.125000 0.000000 0.000000 70.749395 30.727170 44.008829 -135.159836 50.744927 -100.668319 1.989388 -1.304774 -17.930279 7.125000 0.000000 0.000000 
-0.017250 17.265108 -4.997032 -0.556610 -6.209375 20.777968 -6.600965 -13.477835 -67.687642 10.988455 20.988657 64.377570 1.714516 -5.086787 15.082667 0.189800 -2.806100 -7.739400 19.443919 9.724860 12.832245 0.894334 -4.114224 14.583207 -1.864695 -1.911520 30.009796 -0.968200 6.264500 -17.553900 0.337548 5.893576 -1.871197 -1.968917 3.366172 -6.223895 4.278789 -6.045395 -5.044784 3.177400 -2.586000 3.373700 -64.795768 40.002941 25.604760 54.102305 -57.118630 -40.868490 -0.377265 -2.583585 -21.718193 -7.125000 0.000000 0.000000 70.853402 27.496933 46.615352 -134.994917 50.926030 -100.477687 1.979991 -1.358081 -11.023917 7.125000 0.000000 0.000000 
-0.042862 17.273263 -4.398944 -0.785929 -4.748657 20.175524 -7.123413 -13.301308 -66.134795 10.036350 20.545429 61.785151 1.910758 -5.886198 15.238269 0.469300 -4.393800 -12.187200 21.044927 9.812826 14.184897 0.734542 -4.535890 16.178615 -2.055730 0.211007 28.694175 -0.845300 5.864100 -16.390500 0.408622 5.545137 -1.842437 -1.943944 3.192645 -6.141263 4.592707 -6.273487 -4.971849 3.300600 -2.680400 3.343700 -65.883614 40.038082 25.719056 55.883860 -57.695658 -42.439402 -0.408376 -2.526122 -21.423033 -7.125000 0.000000 0.000000 71.105665 24.678063 47.001548 -134.147738 51.445290 -99.871483 1.973184 -1.304600 -13.505380 7.125000 0.000000 0.000000 
-0.064085 17.255281 -3.811728 -1.137685 -3.745641 19.550067 -7.824938 -12.616551 -64.523004 9.336078 20.160219 59.933637 2.160620 -7.020528 16.034744 0.416400 -4.141900 -11.476100 22.569616 9.801167 14.745837 0.315134 -5.517057 19.204540 -2.187178 1.338979 28.455129 -0.509400 4.575200 -12.700800 0.449009 5.331412 -1.800947 -2.031577 3.079917 -6.016650 4.956073 -6.495757 -4.795857 3.444300 -2.768100 3.407000 -66.994657 39.638265 25.844400 57.373848 -58.104137 -43.690586 -0.418026 -2.494205 -21.462355 -7.125000 0.000000 0.000000 71.689161 21.724209 47.772259 -132.942760 52.121653 -99.050337 1.917526 -1.171226 -14.920001 7.125000 0.000000 0.000000 
-0.085934 17.235523 -3.239357 -1.420830 -2.830253 19.095285 -8.542482 -11.933502 -62.990722 8.810583 19.811622 58.443566 2.227794 -7.181580 16.057815 0.477800 -4.432800 -12.297500 23.966980 9.336311 14.125368 -0.445279 -6.988155 23.720093 -2.119470 1.972480 27.247652 -0.646600 5.144100 -14.320100 0.434942 5.042801 -1.774324 -2.351998 2.929975 -5.857964 5.252638 -6.643305 -4.468697 3.511800 -2.822200 3.635300 -68.126744 38.653775 25.846283 58.518319 -58.311020 -44.545435 -0.408805 -2.522510 -21.674556 -7.125000 0.000000 0.000000 72.712817 18.916807 48.781008 -131.012216 53.098868 -97.722856 1.879176 -1.018822 -15.696721 7.125000 0.000000 0.000000 
-0.104961 17.225278 -2.653814 -1.353060 -1.896322 18.707063 -9.619093 -11.426356 -61.300431 8.367955 19.469732 57.158489 2.229674 -7.012716 15.819126 0.537500 -4.697500 -13.047800 24.907849 8.226972 12.797160 -1.525740 -8.672322 29.081347 -1.912105 2.059577 25.435812 -1.086400 6.624300 -18.606900 0.400673 4.637900 -1.764168 -2.546844 2.728416 -5.763444 5.424466 -6.753708 -4.510013 3.511300 -2.863000 3.604700 -69.239286 37.643677 26.073564 60.049187 -58.633924 -45.728352 -0.345546 -2.606768 -22.126595 -7.125000 0.000000 0.000000 73.842168 16.071382 49.553060 -128.228219 54.391050 -95.765314 1.855420 -0.930747 -16.071672 7.125000 0.000000 0.000000 
-0.132874 17.278490 -2.048826 -0.919712 -1.048707 18.421555 -11.037923 -10.911761 -59.009120 7.854055 19.039577 55.649468 2.207820 -6.650843 15.731556 0.463700 -4.368000 -12.114300 25.325009 7.555573 10.617532 -2.960922 -10.487776 34.974055 -1.466999 0.185550 24.627115 -0.445500 4.282300 -11.872100 0.381132 4.169080 -1.732402 -2.296126 2.501794 -5.564963 5.678981 -6.840797 -4.612187 3.593000 -2.888300 3.488800 -70.599004 36.429730 26.378911 61.820940 -59.012086 -47.113800 -0.308670 -2.675470 -22.692040 -7.125000 0.000000 0.000000 74.855262 13.287775 49.929132 -124.736833 55.843604 -93.293834 1.844570 -0.849744 -15.723998 7.125000 0.000000 0.000000 
-0.174691 17.291662 -1.478442 -0.724851 -0.671324 18.664340 -12.020052 -10.093363 -57.394593 7.465973 18.682272 54.447495 2.142642 -6.084836 15.686030 0.275200 -3.374100 -9.321900 25.720765 7.251596 7.907818 -4.576893 -12.202614 41.141163 -1.056085 -1.010452 22.851745 -0.268700 3.334600 -9.211800 0.359835 3.964558 -1.699046 -1.924020 2.409510 -5.070269 5.946343 -6.942572 -4.659198 3.677000 -2.916800 3.418400 -71.876903 34.680972 26.926803 63.407233 -59.311153 -48.351439 -0.352670 -2.665875 -23.321609 -7.125000 0.000000 0.000000 75.839755 10.772469 49.927278 -120.374094 57.384086 -90.201540 1.888017 -0.703018 -14.543489 7.125000 0.000000 0.000000 
-0.210026 17.306089 -0.890703 -0.131969 0.008604 18.603890 -13.443641 -9.514386 -55.253498 7.175270 18.346075 53.618705 2.216868 -6.536134 14.510245 0.204300 -2.910500 -8.029700 25.722850 6.431826 4.852913 -6.385468 -13.788261 47.527921 -0.665927 -2.094061 20.910828 -0.229300 3.082200 -8.507700 0.298585 3.541217 -1.665244 -1.697206 2.204618 -4.757556 6.103023 -7.039421 -4.807637 3.687900 -2.956300 3.253500 -72.939176 32.841711 27.581360 64.830853 -59.557767 -49.466248 -0.278428 -2.669340 -23.867320 -7.125000 0.000000 0.000000 77.027043 8.049542 49.590242 -115.626899 58.727395 -86.797314 1.963795 -0.674615 -13.015579 7.125000 0.000000 0.000000 
